<svg width="27" height="14" viewBox="0 0 27 14" fill="none" xmlns="http://www.w3.org/2000/svg">
<path d="M8.94444 1C5.23744 1 2.09878 3.30755 1 6.5C2.09878 9.69244 5.23744 12 8.94444 12C12.6514 12 15.7901 9.69244 16.8889 6.5C15.7901 3.30755 12.6514 1 8.94444 1Z" stroke="#656565" stroke-width="1.5" stroke-miterlimit="10" stroke-linecap="round" stroke-linejoin="round"/>
<path d="M8.94471 9.55544C10.6322 9.55544 12.0003 8.18742 12.0003 6.49989C12.0003 4.81235 10.6322 3.44434 8.94471 3.44434C7.25718 3.44434 5.88916 4.81235 5.88916 6.49989C5.88916 8.18742 7.25718 9.55544 8.94471 9.55544Z" stroke="#656565" stroke-width="1.5" stroke-miterlimit="10" stroke-linecap="round" stroke-linejoin="round"/>
<path d="M18.321 12H17.196L19.2443 6.18182H20.5455L22.5966 12H21.4716L19.9176 7.375H19.8722L18.321 12ZM18.358 9.71875H21.4261V10.5653H18.358V9.71875ZM24.3459 6.18182V12H23.3175V6.18182H24.3459ZM26.4318 6.18182V12H25.4034V6.18182H26.4318Z" fill="#656565"/>
</svg>
