<svg width="18" height="17" viewBox="0 0 18 17" fill="none" xmlns="http://www.w3.org/2000/svg">
<path d="M8.94444 3C5.23744 3 2.09878 5.30755 1 8.5C2.09878 11.6924 5.23744 14 8.94444 14C12.6514 14 15.7901 11.6924 16.8889 8.5C15.7901 5.30755 12.6514 3 8.94444 3Z" stroke="#AEADAD" stroke-width="1.5" stroke-miterlimit="10" stroke-linecap="round" stroke-linejoin="round"/>
<path d="M8.94471 11.5554C10.6322 11.5554 12.0003 10.1874 12.0003 8.49989C12.0003 6.81235 10.6322 5.44434 8.94471 5.44434C7.25718 5.44434 5.88916 6.81235 5.88916 8.49989C5.88916 10.1874 7.25718 11.5554 8.94471 11.5554Z" stroke="#AEADAD" stroke-width="1.5" stroke-miterlimit="10" stroke-linecap="round" stroke-linejoin="round"/>
<path d="M2 1.5L16 15.5" stroke="#AEADAD" stroke-width="1.5"/>
<path d="M2 1.5L16 15.5" stroke="#AEADAD" stroke-width="1.5"/>
</svg>
